<svg width="1200" height="800" viewBox="0 0 1200 800" fill="none" xmlns="http://www.w3.org/2000/svg">
  <defs>
    <linearGradient id="transportGradient" x1="0" y1="0" x2="1" y2="1">
      <stop offset="0%" stop-color="#00AEC0"/>
      <stop offset="100%" stop-color="#072C74"/>
    </linearGradient>
    <linearGradient id="trailGradient" x1="0" y1="0" x2="1" y2="0">
      <stop offset="0%" stop-color="#A6E8F2" stop-opacity="0.9"/>
      <stop offset="100%" stop-color="#E1F7FF" stop-opacity="0.2"/>
    </linearGradient>
    <linearGradient id="planeGradient" x1="0" y1="0" x2="1" y2="1">
      <stop offset="0%" stop-color="#FFFFFF" stop-opacity="0.95"/>
      <stop offset="100%" stop-color="#BEEAF6" stop-opacity="0.85"/>
    </linearGradient>
    <linearGradient id="busGradient" x1="0" y1="0" x2="1" y2="1">
      <stop offset="0%" stop-color="#FFEDC9"/>
      <stop offset="100%" stop-color="#FFD9A1"/>
    </linearGradient>
  </defs>
  <rect width="1200" height="800" rx="48" fill="url(#transportGradient)"/>
  <circle cx="1040" cy="120" r="180" fill="#0B5FA6" fill-opacity="0.28"/>
  <circle cx="160" cy="720" r="220" fill="#061B3D" fill-opacity="0.4"/>
  <path d="M0 520C120 500 280 460 420 420C640 360 880 320 1200 360V520H0Z" fill="url(#trailGradient)" fill-opacity="0.5"/>
  <g filter="url(#shadowPlane)">
    <path d="M340 320L520 380L760 280L1160 400V470L760 360L520 460L340 400V320Z" fill="url(#planeGradient)"/>
    <rect x="520" y="340" width="40" height="80" rx="12" transform="rotate(-15 520 340)" fill="#0B5FA6" fill-opacity="0.4"/>
  </g>
  <g opacity="0.8">
    <rect x="200" y="520" width="320" height="140" rx="32" fill="url(#busGradient)"/>
    <rect x="240" y="550" width="240" height="40" rx="12" fill="#062C70" fill-opacity="0.2"/>
    <circle cx="280" cy="640" r="32" fill="#062C70" fill-opacity="0.4"/>
    <circle cx="440" cy="640" r="32" fill="#062C70" fill-opacity="0.4"/>
  </g>
  <path d="M200 540C440 480 760 440 1000 520" stroke="#FFFFFF" stroke-opacity="0.35" stroke-width="4" stroke-linecap="round" stroke-dasharray="20 26"/>
  <path d="M260 610C420 560 620 560 820 620" stroke="#FFFFFF" stroke-opacity="0.2" stroke-width="3" stroke-linecap="round" stroke-dasharray="14 18"/>
  <defs>
    <filter id="shadowPlane" x="320" y="250" width="860" height="260" color-interpolation-filters="sRGB">
      <feFlood flood-opacity="0" result="BackgroundImageFix"/>
      <feGaussianBlur in="BackgroundImageFix" stdDeviation="10"/>
      <feComposite in2="SourceAlpha" operator="in" result="effect1_backgroundBlur"/>
      <feOffset dy="6"/>
      <feGaussianBlur stdDeviation="20"/>
      <feComposite in2="hardAlpha" operator="out"/>
      <feColorMatrix type="matrix" values="0 0 0 0 0 0 0 0 0 0.2 0 0 0 0 0.35 0 0 0 0.2 0"/>
      <feBlend in2="effect1_backgroundBlur" result="effect2_dropShadow"/>
      <feBlend in="SourceGraphic" in2="effect2_dropShadow" result="shape"/>
    </filter>
  </defs>
</svg>

