<svg width="1200" height="800" viewBox="0 0 1200 800" fill="none" xmlns="http://www.w3.org/2000/svg">
  <defs>
    <linearGradient id="toursGradient" x1="0" y1="0" x2="1" y2="1">
      <stop offset="0%" stop-color="#F9A03F"/>
      <stop offset="100%" stop-color="#F26D5B"/>
    </linearGradient>
    <linearGradient id="ridgeGradient" x1="0" y1="0" x2="1" y2="0">
      <stop offset="0%" stop-color="#FEE7C9" stop-opacity="0.85"/>
      <stop offset="100%" stop-color="#FFBC8C" stop-opacity="0.65"/>
    </linearGradient>
    <linearGradient id="riverGradient" x1="0" y1="0" x2="1" y2="0">
      <stop offset="0%" stop-color="#B4F2FF"/>
      <stop offset="100%" stop-color="#5AC7F2"/>
    </linearGradient>
  </defs>
  <rect width="1200" height="800" rx="48" fill="url(#toursGradient)"/>
  <path d="M0 520C160 460 320 420 520 420C800 420 1000 520 1200 580V800H0V520Z" fill="url(#ridgeGradient)"/>
  <path d="M0 600C200 560 420 560 600 620C780 680 960 680 1200 640V800H0V600Z" fill="#F3874F"/>
  <path d="M0 720C180 680 360 680 540 720C720 760 900 760 1200 720V800H0V720Z" fill="#E66A43"/>
  <path d="M80 700C200 680 360 700 520 740C640 770 760 780 920 770C1060 760 1200 720 1200 720" stroke="url(#riverGradient)" stroke-width="36" stroke-linecap="round" stroke-linejoin="round" opacity="0.75"/>
  <g opacity="0.9">
    <circle cx="320" cy="340" r="120" fill="#FFEEDB" fill-opacity="0.35"/>
    <circle cx="880" cy="260" r="160" fill="#FFEEDB" fill-opacity="0.3"/>
    <path d="M260 360L320 240L380 360H260Z" fill="#FDE5C0"/>
    <path d="M820 320L900 200L980 320H820Z" fill="#FDE5C0"/>
    <path d="M360 360C420 310 520 300 620 340C720 380 820 360 920 300" stroke="#FFF3DF" stroke-width="6" stroke-linecap="round"/>
  </g>
  <path d="M200 520C280 500 360 500 420 520C480 540 560 560 640 520C720 480 880 460 1040 520" stroke="#FFFFFF" stroke-opacity="0.35" stroke-width="6" stroke-dasharray="24 18" stroke-linecap="round"/>
  <path d="M540 500L580 420L640 520H540Z" fill="#FFFFFF" fill-opacity="0.65"/>
</svg>

